<svg width="642" height="266" viewBox="0 0 642 266" fill="none" xmlns="http://www.w3.org/2000/svg">
<path d="M593.117 73.0002V23.4002H604.417L605.417 31.8002C606.951 28.8669 609.151 26.5335 612.017 24.8002C614.951 23.0669 618.384 22.2002 622.317 22.2002C628.451 22.2002 633.217 24.1335 636.617 28.0002C640.017 31.8669 641.717 37.5335 641.717 45.0002V73.0002H628.917V46.2002C628.917 41.9335 628.051 38.6669 626.317 36.4002C624.584 34.1335 621.884 33.0002 618.217 33.0002C614.617 33.0002 611.651 34.2669 609.317 36.8002C607.051 39.3335 605.917 42.8669 605.917 47.4002V73.0002H593.117Z" fill="white"/>
<path d="M556.123 74.2002C551.323 74.2002 546.989 73.1002 543.123 70.9002C539.323 68.7002 536.289 65.6669 534.023 61.8002C531.823 57.8669 530.723 53.3335 530.723 48.2002C530.723 43.0669 531.856 38.5669 534.123 34.7002C536.389 30.7669 539.423 27.7002 543.223 25.5002C547.089 23.3002 551.423 22.2002 556.223 22.2002C560.956 22.2002 565.223 23.3002 569.023 25.5002C572.889 27.7002 575.923 30.7669 578.123 34.7002C580.389 38.5669 581.523 43.0669 581.523 48.2002C581.523 53.3335 580.389 57.8669 578.123 61.8002C575.923 65.6669 572.889 68.7002 569.023 70.9002C565.156 73.1002 560.856 74.2002 556.123 74.2002ZM556.123 63.1002C559.456 63.1002 562.356 61.8669 564.823 59.4002C567.289 56.8669 568.523 53.1335 568.523 48.2002C568.523 43.2669 567.289 39.5669 564.823 37.1002C562.356 34.5669 559.489 33.3002 556.223 33.3002C552.823 33.3002 549.889 34.5669 547.423 37.1002C545.023 39.5669 543.823 43.2669 543.823 48.2002C543.823 53.1335 545.023 56.8669 547.423 59.4002C549.889 61.8669 552.789 63.1002 556.123 63.1002Z" fill="white"/>
<path d="M495.328 74.2002C490.528 74.2002 486.194 73.1002 482.328 70.9002C478.528 68.7002 475.494 65.6669 473.228 61.8002C471.028 57.8669 469.928 53.3335 469.928 48.2002C469.928 43.0669 471.061 38.5669 473.328 34.7002C475.594 30.7669 478.628 27.7002 482.428 25.5002C486.294 23.3002 490.628 22.2002 495.428 22.2002C500.161 22.2002 504.428 23.3002 508.228 25.5002C512.094 27.7002 515.128 30.7669 517.328 34.7002C519.594 38.5669 520.728 43.0669 520.728 48.2002C520.728 53.3335 519.594 57.8669 517.328 61.8002C515.128 65.6669 512.094 68.7002 508.228 70.9002C504.361 73.1002 500.061 74.2002 495.328 74.2002ZM495.328 63.1002C498.661 63.1002 501.561 61.8669 504.028 59.4002C506.494 56.8669 507.728 53.1335 507.728 48.2002C507.728 43.2669 506.494 39.5669 504.028 37.1002C501.561 34.5669 498.694 33.3002 495.428 33.3002C492.028 33.3002 489.094 34.5669 486.628 37.1002C484.228 39.5669 483.028 43.2669 483.028 48.2002C483.028 53.1335 484.228 56.8669 486.628 59.4002C489.094 61.8669 491.994 63.1002 495.328 63.1002Z" fill="white"/>
<path d="M439.339 74.2002C434.939 74.2002 431.072 73.5002 427.739 72.1002C424.405 70.6335 421.739 68.6335 419.739 66.1002C417.739 63.5669 416.539 60.6335 416.139 57.3002H429.039C429.439 59.2335 430.505 60.9002 432.239 62.3002C434.039 63.6335 436.339 64.3002 439.139 64.3002C441.939 64.3002 443.972 63.7335 445.239 62.6002C446.572 61.4669 447.239 60.1669 447.239 58.7002C447.239 56.5669 446.305 55.1335 444.439 54.4002C442.572 53.6002 439.972 52.8335 436.639 52.1002C434.505 51.6335 432.339 51.0669 430.139 50.4002C427.939 49.7335 425.905 48.9002 424.039 47.9002C422.239 46.8335 420.772 45.5002 419.639 43.9002C418.505 42.2335 417.939 40.2002 417.939 37.8002C417.939 33.4002 419.672 29.7002 423.139 26.7002C426.672 23.7002 431.605 22.2002 437.939 22.2002C443.805 22.2002 448.472 23.5669 451.939 26.3002C455.472 29.0335 457.572 32.8002 458.239 37.6002H446.139C445.405 33.9335 442.639 32.1002 437.839 32.1002C435.439 32.1002 433.572 32.5669 432.239 33.5002C430.972 34.4335 430.339 35.6002 430.339 37.0002C430.339 38.4669 431.305 39.6335 433.239 40.5002C435.172 41.3669 437.739 42.1669 440.939 42.9002C444.405 43.7002 447.572 44.6002 450.439 45.6002C453.372 46.5335 455.705 47.9669 457.439 49.9002C459.172 51.7669 460.039 54.4669 460.039 58.0002C460.105 61.0669 459.305 63.8335 457.639 66.3002C455.972 68.7669 453.572 70.7002 450.439 72.1002C447.305 73.5002 443.605 74.2002 439.339 74.2002Z" fill="white"/>
<path d="M358.777 58.2002C356.377 58.2002 354.144 57.9335 352.077 57.4002L348.377 61.1002C349.51 61.7002 351.044 62.2002 352.977 62.6002C354.911 63.0002 358.044 63.4002 362.377 63.8002C368.977 64.4002 373.777 65.9669 376.777 68.5002C379.777 71.0335 381.277 74.5335 381.277 79.0002C381.277 81.9335 380.477 84.7002 378.877 87.3002C377.277 89.9669 374.811 92.1002 371.477 93.7002C368.144 95.3669 363.877 96.2002 358.677 96.2002C351.61 96.2002 345.91 94.8669 341.577 92.2002C337.244 89.6002 335.077 85.6669 335.077 80.4002C335.077 75.9335 337.244 72.0669 341.577 68.8002C340.244 68.2002 339.077 67.5669 338.077 66.9002C337.144 66.2335 336.31 65.5335 335.577 64.8002V62.5002L344.277 53.3002C340.41 49.9002 338.477 45.5335 338.477 40.2002C338.477 36.8669 339.277 33.8335 340.877 31.1002C342.544 28.3669 344.877 26.2002 347.877 24.6002C350.877 23.0002 354.51 22.2002 358.777 22.2002C361.577 22.2002 364.177 22.6002 366.577 23.4002H385.377V31.2002L376.877 31.8002C378.21 34.3335 378.877 37.1335 378.877 40.2002C378.877 43.5335 378.077 46.5669 376.477 49.3002C374.877 52.0335 372.544 54.2002 369.477 55.8002C366.477 57.4002 362.91 58.2002 358.777 58.2002ZM358.777 48.4002C361.377 48.4002 363.51 47.7002 365.177 46.3002C366.91 44.9002 367.777 42.9002 367.777 40.3002C367.777 37.7002 366.91 35.7002 365.177 34.3002C363.51 32.9002 361.377 32.2002 358.777 32.2002C356.044 32.2002 353.844 32.9002 352.177 34.3002C350.51 35.7002 349.677 37.7002 349.677 40.3002C349.677 42.9002 350.51 44.9002 352.177 46.3002C353.844 47.7002 356.044 48.4002 358.777 48.4002ZM346.777 79.1002C346.777 81.5669 347.91 83.4002 350.177 84.6002C352.51 85.8669 355.344 86.5002 358.677 86.5002C361.877 86.5002 364.477 85.8335 366.477 84.5002C368.477 83.2335 369.477 81.5002 369.477 79.3002C369.477 77.5002 368.811 76.0002 367.477 74.8002C366.211 73.6002 363.644 72.8669 359.777 72.6002C357.044 72.4002 354.51 72.1002 352.177 71.7002C350.244 72.7669 348.844 73.9335 347.977 75.2002C347.177 76.4669 346.777 77.7669 346.777 79.1002Z" fill="white"/>
<path d="M276.787 73.0002V23.4002H288.087L289.087 31.8002C290.62 28.8669 292.82 26.5335 295.687 24.8002C298.62 23.0669 302.054 22.2002 305.987 22.2002C312.12 22.2002 316.887 24.1335 320.287 28.0002C323.687 31.8669 325.387 37.5335 325.387 45.0002V73.0002H312.587V46.2002C312.587 41.9335 311.72 38.6669 309.987 36.4002C308.254 34.1335 305.554 33.0002 301.887 33.0002C298.287 33.0002 295.32 34.2669 292.987 36.8002C290.72 39.3335 289.587 42.8669 289.587 47.4002V73.0002H276.787Z" fill="white"/>
<path d="M256.877 15.7C254.544 15.7 252.61 15 251.077 13.6C249.61 12.2 248.877 10.4333 248.877 8.3C248.877 6.16667 249.61 4.43333 251.077 3.1C252.61 1.7 254.544 1 256.877 1C259.21 1 261.11 1.7 262.577 3.1C264.11 4.43333 264.877 6.16667 264.877 8.3C264.877 10.4333 264.11 12.2 262.577 13.6C261.11 15 259.21 15.7 256.877 15.7ZM250.477 73V23.4H263.277V73H250.477Z" fill="white"/>
<path d="M156.175 73.0002V23.4002H167.475L168.575 30.1002C170.175 27.7002 172.275 25.8002 174.875 24.4002C177.541 22.9335 180.608 22.2002 184.075 22.2002C191.741 22.2002 197.175 25.1669 200.375 31.1002C202.175 28.3669 204.575 26.2002 207.575 24.6002C210.641 23.0002 213.975 22.2002 217.575 22.2002C224.041 22.2002 229.008 24.1335 232.475 28.0002C235.941 31.8669 237.675 37.5335 237.675 45.0002V73.0002H224.875V46.2002C224.875 41.9335 224.041 38.6669 222.375 36.4002C220.775 34.1335 218.275 33.0002 214.875 33.0002C211.408 33.0002 208.608 34.2669 206.475 36.8002C204.408 39.3335 203.375 42.8669 203.375 47.4002V73.0002H190.575V46.2002C190.575 41.9335 189.741 38.6669 188.075 36.4002C186.408 34.1335 183.841 33.0002 180.375 33.0002C176.975 33.0002 174.208 34.2669 172.075 36.8002C170.008 39.3335 168.975 42.8669 168.975 47.4002V73.0002H156.175Z" fill="white"/>
<path d="M119.18 74.2002C114.38 74.2002 110.047 73.1002 106.18 70.9002C102.38 68.7002 99.3469 65.6669 97.0803 61.8002C94.8803 57.8669 93.7803 53.3335 93.7803 48.2002C93.7803 43.0669 94.9136 38.5669 97.1803 34.7002C99.4469 30.7669 102.48 27.7002 106.28 25.5002C110.147 23.3002 114.48 22.2002 119.28 22.2002C124.014 22.2002 128.28 23.3002 132.08 25.5002C135.947 27.7002 138.98 30.7669 141.18 34.7002C143.447 38.5669 144.58 43.0669 144.58 48.2002C144.58 53.3335 143.447 57.8669 141.18 61.8002C138.98 65.6669 135.947 68.7002 132.08 70.9002C128.214 73.1002 123.914 74.2002 119.18 74.2002ZM119.18 63.1002C122.514 63.1002 125.414 61.8669 127.88 59.4002C130.347 56.8669 131.58 53.1335 131.58 48.2002C131.58 43.2669 130.347 39.5669 127.88 37.1002C125.414 34.5669 122.547 33.3002 119.28 33.3002C115.88 33.3002 112.947 34.5669 110.48 37.1002C108.08 39.5669 106.88 43.2669 106.88 48.2002C106.88 53.1335 108.08 56.8669 110.48 59.4002C112.947 61.8669 115.847 63.1002 119.18 63.1002Z" fill="white"/>
<path d="M53.5 74.1998C46.4333 74.1998 40.3667 72.6998 35.3 69.6998C30.2333 66.6331 26.3333 62.3998 23.6 56.9998C20.8667 51.5331 19.5 45.2331 19.5 38.0998C19.5 30.9665 20.8667 24.6665 23.6 19.1998C26.3333 13.7331 30.2333 9.46647 35.3 6.39981C40.3667 3.33314 46.4333 1.7998 53.5 1.7998C61.9 1.7998 68.7667 3.8998 74.1 8.0998C79.5 12.2331 82.8667 18.0665 84.2 25.5998H70.1C69.2333 21.7998 67.3667 18.8331 64.5 16.6998C61.7 14.4998 57.9667 13.3998 53.3 13.3998C46.8333 13.3998 41.7667 15.5998 38.1 19.9998C34.4333 24.3998 32.6 30.4331 32.6 38.0998C32.6 45.7665 34.4333 51.7998 38.1 56.1998C41.7667 60.5331 46.8333 62.6998 53.3 62.6998C57.9667 62.6998 61.7 61.6998 64.5 59.6998C67.3667 57.6331 69.2333 54.7998 70.1 51.1998H84.2C82.8667 58.3998 79.5 64.0331 74.1 68.0998C68.7667 72.1665 61.9 74.1998 53.5 74.1998Z" fill="white"/>
<path fill-rule="evenodd" clip-rule="evenodd" d="M552.886 68.0486H564.818V44.1851C564.818 39.9592 565.875 36.6656 567.987 34.3041C570.162 31.9426 572.928 30.7618 576.284 30.7618C579.702 30.7618 582.219 31.8183 583.834 33.9312C585.45 36.0441 586.258 39.0892 586.258 43.0665V68.0486H598.19V41.9479C598.19 34.9877 596.605 29.7054 593.436 26.101C590.266 22.4966 585.823 20.6944 580.106 20.6944C576.439 20.6944 573.239 21.5023 570.504 23.118C568.284 24.4603 566.493 26.1886 565.131 28.3028C564.854 28.7336 564.594 29.1804 564.352 29.6432L563.42 21.813H552.886V68.0486ZM564.964 26.9029L564.248 20.8808H551.954V68.9808H565.75V44.1851C565.75 40.1139 566.766 37.0703 568.678 34.9302C570.667 32.7735 573.178 31.694 576.284 31.694C579.502 31.694 581.703 32.6787 583.094 34.4974C584.537 36.3848 585.326 39.1972 585.326 43.0665V68.9808H599.122V41.9479C599.122 34.8613 597.51 29.3226 594.136 25.4854C590.755 21.6411 586.035 19.7622 580.106 19.7622C576.298 19.7622 572.929 20.6025 570.03 22.3154L570.022 22.3203C568.002 23.5417 566.314 25.0706 564.964 26.9029Z" fill="url(#paint0_linear_808_3574)"/>
<path fill-rule="evenodd" clip-rule="evenodd" d="M506.283 66.0911C509.887 68.1418 513.927 69.1672 518.401 69.1672C522.814 69.1672 526.822 68.1418 530.426 66.0911C534.031 64.0403 536.858 61.2127 538.909 57.6083C541.022 53.9418 542.078 49.7159 542.078 44.9308C542.078 40.1457 541.022 35.9509 538.909 32.3465C536.858 28.68 534.031 25.8213 530.426 23.7705C526.884 21.7198 522.907 20.6944 518.494 20.6944C514.02 20.6944 509.981 21.7198 506.376 23.7705C502.834 25.8213 500.006 28.68 497.894 32.3465C495.781 35.9509 494.724 40.1457 494.724 44.9308C494.724 49.7159 495.75 53.9418 497.8 57.6083C499.913 61.2127 502.741 64.0403 506.283 66.0911ZM497.088 31.8771C499.28 28.0757 502.222 25.0986 505.909 22.9638L505.915 22.9603C509.671 20.8234 513.872 19.7622 518.494 19.7622C523.056 19.7622 527.196 20.8239 530.89 22.9621C534.64 25.0964 537.587 28.0756 539.718 31.8836C541.923 35.6488 543.011 40.0081 543.011 44.9308C543.011 49.8558 541.922 54.2448 539.719 58.0697C537.585 61.8196 534.637 64.7677 530.887 66.9013C527.133 69.0371 522.964 70.0994 518.401 70.0994C513.778 70.0994 509.578 69.0382 505.822 66.9013L505.816 66.8978C502.131 64.7645 499.189 61.8201 496.996 58.0797L496.991 58.0716L496.987 58.0634C494.848 54.2394 493.792 49.8528 493.792 44.9308C493.792 40.0053 494.881 35.6437 497.088 31.8771ZM526.511 55.3711C524.212 57.6705 521.509 58.8201 518.401 58.8201C515.294 58.8201 512.591 57.6705 510.291 55.3711C508.054 53.0096 506.936 49.5295 506.936 44.9308C506.936 40.3321 508.054 36.8831 510.291 34.5837C512.591 32.2222 515.325 31.0415 518.494 31.0415C521.54 31.0415 524.212 32.2222 526.511 34.5837C528.81 36.8831 529.96 40.3321 529.96 44.9308C529.96 49.5295 528.81 53.0096 526.511 55.3711ZM525.848 54.7156C523.716 56.8467 521.247 57.888 518.401 57.888C515.558 57.888 513.091 56.8484 510.96 54.7211C508.949 52.5933 507.868 49.3838 507.868 44.9308C507.868 40.4695 508.953 37.2959 510.959 35.234C513.091 33.0447 515.588 31.9736 518.494 31.9736C521.266 31.9736 523.703 33.0363 525.843 35.2341L525.852 35.2429C527.915 37.3057 529.028 40.4758 529.028 44.9308C529.028 49.3801 527.917 52.5872 525.848 54.7156Z" fill="url(#paint1_linear_808_3574)"/>
<path fill-rule="evenodd" clip-rule="evenodd" d="M449.611 66.0911C453.216 68.1418 457.255 69.1672 461.729 69.1672C466.142 69.1672 470.15 68.1418 473.754 66.0911C477.359 64.0403 480.186 61.2127 482.237 57.6083C484.35 53.9418 485.407 49.7159 485.407 44.9308C485.407 40.1457 484.35 35.9509 482.237 32.3465C480.186 28.68 477.359 25.8213 473.754 23.7705C470.212 21.7198 466.235 20.6944 461.823 20.6944C457.348 20.6944 453.309 21.7198 449.704 23.7705C446.162 25.8213 443.335 28.68 441.222 32.3465C439.109 35.9509 438.052 40.1457 438.052 44.9308C438.052 49.7159 439.078 53.9418 441.128 57.6083C443.241 61.2127 446.069 64.0403 449.611 66.0911ZM440.415 31.8801C442.606 28.0774 445.549 25.0992 449.237 22.9638L449.243 22.9603C452.999 20.8234 457.2 19.7622 461.823 19.7622C466.385 19.7622 470.525 20.8241 474.22 22.9628C477.969 25.0971 480.915 28.076 483.046 31.8836C485.251 35.6488 486.339 40.0081 486.339 44.9308C486.339 49.8575 485.25 54.2479 483.045 58.0737C480.911 61.8217 477.964 64.7684 474.215 66.9013C470.461 69.0371 466.293 70.0994 461.729 70.0994C457.107 70.0994 452.906 69.0382 449.15 66.9013L449.144 66.8978C445.459 64.7645 442.517 61.8201 440.324 58.0797L440.32 58.0716L440.315 58.0634C438.176 54.2394 437.12 49.8528 437.12 44.9308C437.12 40.0066 438.208 35.6461 440.415 31.8801ZM469.839 55.3711C467.54 57.6705 464.837 58.8201 461.729 58.8201C458.622 58.8201 455.919 57.6705 453.62 55.3711C451.382 53.0096 450.264 49.5295 450.264 44.9308C450.264 40.3321 451.382 36.8831 453.62 34.5837C455.919 32.2222 458.653 31.0415 461.823 31.0415C464.868 31.0415 467.54 32.2222 469.839 34.5837C472.139 36.8831 473.288 40.3321 473.288 44.9308C473.288 49.5295 472.139 53.0096 469.839 55.3711ZM469.175 54.7166C467.043 56.8471 464.575 57.888 461.729 57.888C458.886 57.888 456.419 56.8485 454.288 54.7211C452.277 52.5933 451.196 49.3838 451.196 44.9308C451.196 40.4696 452.281 37.2961 454.287 35.234C456.419 33.0447 458.916 31.9736 461.823 31.9736C464.594 31.9736 467.032 33.0363 469.171 35.2341L469.18 35.2429C471.243 37.3057 472.356 40.4758 472.356 44.9308C472.356 49.3808 471.245 52.5882 469.175 54.7166Z" fill="url(#paint2_linear_808_3574)"/>
<path fill-rule="evenodd" clip-rule="evenodd" d="M398.725 67.2097C401.832 68.5147 405.437 69.1672 409.538 69.1672C413.516 69.1672 416.965 68.5147 419.885 67.2097C422.806 65.9046 425.043 64.1024 426.597 61.8031C428.151 59.5037 428.896 56.9247 428.834 54.0661C428.834 50.7724 428.026 48.2555 426.411 46.5155C424.795 44.7133 422.62 43.3772 419.885 42.5072C417.213 41.575 414.261 40.736 411.03 39.9903C408.047 39.3067 405.654 38.561 403.852 37.7531C402.05 36.9452 401.149 35.8577 401.149 34.4905C401.149 33.1855 401.739 32.0979 402.92 31.2279C404.163 30.3579 405.903 29.9229 408.14 29.9229C412.615 29.9229 415.194 31.6318 415.877 35.0498H427.156C427.113 34.7343 427.062 34.4236 427.005 34.1176C426.252 30.085 424.345 26.8845 421.284 24.5163C418.052 21.9683 413.702 20.6944 408.233 20.6944C402.33 20.6944 397.731 22.0926 394.437 24.8891C391.206 27.6857 389.59 31.1347 389.59 35.2362C389.59 37.4734 390.118 39.3689 391.175 40.9225C392.231 42.4139 393.598 43.6568 395.276 44.6511C397.016 45.5833 398.912 46.3601 400.962 46.9816C403.013 47.603 405.033 48.1312 407.022 48.5663C410.129 49.2499 412.552 49.9645 414.292 50.7102C416.033 51.3938 416.903 52.73 416.903 54.7186C416.903 56.0858 416.281 57.2976 415.038 58.354C413.857 59.4105 411.962 59.9387 409.352 59.9387C406.742 59.9387 404.598 59.3173 402.92 58.0744C401.304 56.7694 400.31 55.2157 399.937 53.4135H387.912C387.95 53.7281 387.995 54.0388 388.048 54.3457C388.519 57.0706 389.592 59.4942 391.268 61.6166C393.132 63.9781 395.618 65.8425 398.725 67.2097ZM403.49 57.3369C404.969 58.4264 406.9 59.0066 409.352 59.0066C411.872 59.0066 413.488 58.4904 414.417 57.6594L414.425 57.6515L414.434 57.6438C415.513 56.7268 415.97 55.759 415.97 54.7186C415.97 53.8602 415.783 53.2169 415.469 52.7337C415.157 52.2549 414.673 51.8613 413.952 51.5779L413.938 51.5727L413.925 51.5671C412.263 50.8548 409.905 50.1551 406.822 49.4769M403.49 57.3369C402.029 56.1517 401.172 54.7831 400.85 53.2247L400.696 52.4814H386.861L386.987 53.5246C387.379 56.7951 388.561 59.6925 390.536 62.1943C392.507 64.69 395.121 66.6423 398.35 68.0629L398.357 68.0661L398.364 68.0691C401.608 69.4314 405.339 70.0994 409.538 70.0994C413.616 70.0994 417.2 69.4306 420.266 68.0607C423.321 66.6958 425.704 64.7894 427.37 62.325C429.033 59.8635 429.831 57.0975 429.766 54.0563C429.765 50.6272 428.923 47.8548 427.1 45.8874C425.357 43.946 423.035 42.5331 420.181 41.6229C417.475 40.6795 414.494 39.833 411.239 39.082L411.238 39.0817C408.286 38.4052 405.958 37.6757 404.233 36.9025C402.594 36.1676 402.081 35.3329 402.081 34.4905C402.081 33.5245 402.494 32.7027 403.464 31.985C404.492 31.2694 406.015 30.855 408.14 30.855C410.272 30.855 411.832 31.2641 412.915 31.9816C413.971 32.6812 414.663 33.7333 414.963 35.2326L415.113 35.982H428.227L428.08 34.9216C427.428 30.2294 425.359 26.491 421.857 23.7808C418.414 21.0685 413.84 19.7622 408.233 19.7622C402.19 19.7622 397.349 21.1941 393.834 24.1785L393.827 24.1843C390.401 27.1494 388.658 30.8514 388.658 35.2362C388.658 37.624 389.224 39.7109 390.404 41.4466L390.409 41.454L390.414 41.4613C391.551 43.0666 393.018 44.3966 394.801 45.4531L394.818 45.4633L394.836 45.4728C396.635 46.4364 398.587 47.2359 400.692 47.8737C402.765 48.5018 404.808 49.0362 406.821 49.4767" fill="url(#paint3_linear_808_3574)"/>
<path fill-rule="evenodd" clip-rule="evenodd" d="M328.196 53.5068C330.123 54.0039 332.204 54.2525 334.442 54.2525C338.295 54.2525 341.619 53.5068 344.416 52.0153C347.274 50.5238 349.45 48.5041 350.941 45.9562C352.432 43.4083 353.178 40.5807 353.178 37.4734C353.178 34.9746 352.703 32.6656 351.754 30.5467C351.617 30.2416 351.47 29.9404 351.314 29.6432L359.237 29.0839V21.813H341.713C339.475 21.0672 337.052 20.6944 334.442 20.6944C330.464 20.6944 327.077 21.4401 324.281 22.9316C321.484 24.4231 319.309 26.4428 317.756 28.9907C316.264 31.5386 315.519 34.3662 315.519 37.4734C315.519 42.1199 317.093 45.9792 320.241 49.0515C320.461 49.2665 320.689 49.4776 320.925 49.6849L312.815 58.2608V60.4048C313.499 61.0884 314.276 61.7409 315.146 62.3624C315.833 62.8206 316.605 63.262 317.461 63.6864C317.766 63.8376 318.082 63.9866 318.408 64.1335C318.125 64.3471 317.852 64.5634 317.588 64.7825C314.096 67.6869 312.349 71.075 312.349 74.9467C312.349 79.8561 314.369 83.5226 318.408 85.9463C322.448 88.4321 327.761 89.675 334.348 89.675C339.196 89.675 343.173 88.8982 346.28 87.3445C349.387 85.8531 351.687 83.8644 353.178 81.3787C354.67 78.955 355.415 76.376 355.415 73.6416C355.415 69.4779 354.017 66.2154 351.221 63.8539C348.424 61.4924 343.95 60.032 337.797 59.4727C333.758 59.0998 330.837 58.7269 329.035 58.354C327.702 58.0782 326.573 57.7514 325.648 57.3735C325.322 57.2406 325.022 57.1013 324.747 56.9558L328.196 53.5068ZM328.484 54.5371L326.368 56.6535C327.154 56.9449 328.103 57.2093 329.224 57.4412C330.971 57.8027 333.847 58.1719 337.882 58.5444C344.107 59.1103 348.81 60.5979 351.822 63.1416C354.859 65.7058 356.348 69.2457 356.348 73.6416C356.348 76.5541 355.551 79.2999 353.975 81.863C352.374 84.5285 349.925 86.6275 346.691 88.1815C343.414 89.8181 339.283 90.6071 334.348 90.6071C327.656 90.6071 322.157 89.3461 317.925 86.7434C313.593 84.1428 311.417 80.1652 311.417 74.9467C311.417 70.8653 313.221 67.3233 316.676 64.334C315.934 63.9513 315.251 63.5529 314.629 63.138L314.616 63.1297L314.604 63.1209C313.696 62.4727 312.88 61.7874 312.156 61.064L311.883 60.7909V57.8899L319.601 49.7289C316.259 46.4734 314.586 42.3673 314.586 37.4734C314.586 34.2097 315.372 31.2182 316.951 28.5198L316.956 28.5125L316.96 28.5054C318.606 25.8062 320.908 23.6739 323.842 22.1091C326.804 20.5295 330.35 19.7622 334.442 19.7622C337.086 19.7622 339.561 20.1323 341.862 20.8808H360.17V29.9526L352.74 30.477C353.656 32.6366 354.11 34.9722 354.11 37.4734C354.11 40.7372 353.325 43.7287 351.745 46.4271C350.158 49.1389 347.848 51.275 344.851 52.8396C341.894 54.4158 338.413 55.1847 334.442 55.1847C332.333 55.1847 330.346 54.9705 328.484 54.5371ZM340.407 43.1597C338.854 44.4647 336.865 45.1172 334.442 45.1172C331.894 45.1172 329.843 44.4647 328.289 43.1597C326.736 41.8546 325.959 39.9903 325.959 37.5667C325.959 35.143 326.736 33.2787 328.289 31.9736C329.843 30.6686 331.894 30.0161 334.442 30.0161C336.865 30.0161 338.854 30.6686 340.407 31.9736C342.023 33.2787 342.831 35.143 342.831 37.5667C342.831 39.9903 342.023 41.8546 340.407 43.1597ZM326.425 78.8618C324.312 77.7432 323.256 76.0342 323.256 73.7349C323.256 72.492 323.628 71.2801 324.374 70.0994C325.182 68.9186 326.487 67.8311 328.289 66.8368C330.464 67.2097 332.826 67.4893 335.374 67.6758C338.978 67.9243 341.371 68.6079 342.551 69.7265C343.794 70.8451 344.416 72.2434 344.416 73.9213C344.416 75.9721 343.484 77.5878 341.619 78.7686C339.755 80.0115 337.331 80.6329 334.348 80.6329C331.241 80.6329 328.6 80.0425 326.425 78.8618ZM328.459 67.8108C326.893 68.7114 325.813 69.653 325.153 70.6115C324.496 71.6573 324.188 72.6941 324.188 73.7349C324.188 74.7369 324.416 75.5641 324.841 76.251C325.267 76.9398 325.923 77.5414 326.861 78.038L326.87 78.0425C328.878 79.1326 331.358 79.7007 334.348 79.7007C337.207 79.7007 339.434 79.105 341.102 77.993L341.111 77.9869L341.121 77.9811C342.74 76.9556 343.484 75.6246 343.484 73.9213C343.484 72.5066 342.974 71.3605 341.928 70.4194L341.919 70.4114L341.91 70.4032C341.471 69.9874 340.737 69.5917 339.615 69.2712C338.503 68.9533 337.073 68.7273 335.31 68.6057L335.306 68.6054C332.859 68.4264 330.577 68.1619 328.459 67.8108ZM339.815 42.4401L339.822 42.4345C341.181 41.337 341.899 39.7613 341.899 37.5667C341.899 35.3721 341.181 33.7963 339.822 32.6988L339.815 32.6932L339.808 32.6874C338.453 31.5497 336.69 30.9482 334.442 30.9482C332.055 30.9482 330.235 31.5566 328.889 32.6874C327.588 33.7805 326.891 35.3593 326.891 37.5667C326.891 39.774 327.588 41.3528 328.889 42.4459C330.235 43.5768 332.055 44.1851 334.442 44.1851C336.69 44.1851 338.453 43.5836 339.808 42.4459L339.815 42.4401Z" fill="url(#paint4_linear_808_3574)"/>
<path fill-rule="evenodd" clip-rule="evenodd" d="M258.012 68.0486H269.944V44.1851C269.944 39.9592 271 36.6656 273.113 34.3041C275.288 31.9426 278.054 30.7618 281.41 30.7618C284.828 30.7618 287.345 31.8183 288.96 33.9312C290.576 36.0441 291.384 39.0892 291.384 43.0665V68.0486H303.316V41.9479C303.316 34.9877 301.731 29.7054 298.562 26.101C295.392 22.4966 290.949 20.6944 285.232 20.6944C281.565 20.6944 278.365 21.5023 275.63 23.118C273.41 24.4603 271.619 26.1886 270.257 28.3028C269.98 28.7336 269.72 29.1804 269.478 29.6432L268.546 21.813H258.012V68.0486ZM270.09 26.9029L269.374 20.8808H257.08V68.9808H270.876V44.1851C270.876 40.1138 271.892 37.0705 273.804 34.9304C275.793 32.7735 278.304 31.694 281.41 31.694C284.628 31.694 286.829 32.6787 288.22 34.4974C289.663 36.3848 290.452 39.1972 290.452 43.0665V68.9808H304.248V41.9479C304.248 34.8613 302.636 29.3226 299.262 25.4854C295.881 21.6411 291.161 19.7622 285.232 19.7622C281.424 19.7622 278.055 20.6025 275.156 22.3154L275.148 22.3203C273.128 23.5417 271.44 25.0706 270.09 26.9029Z" fill="url(#paint5_linear_808_3574)"/>
<path fill-rule="evenodd" clip-rule="evenodd" d="M233.41 13.3589L233.403 13.3518C231.841 11.8608 231.063 9.9655 231.063 7.73701C231.063 5.50824 231.842 3.63412 233.419 2.19997C235.042 0.719305 237.077 0 239.453 0C241.821 0 243.83 0.715057 245.394 2.20058C247.028 3.62855 247.843 5.50136 247.843 7.73701C247.843 9.97594 247.026 11.8729 245.402 13.359C243.837 14.8497 241.825 15.5672 239.453 15.5672C237.076 15.5672 235.041 14.8475 233.418 13.3659L233.41 13.3589ZM244.766 12.6775C246.196 11.3725 246.91 9.72564 246.91 7.73701C246.91 5.74838 246.196 4.13262 244.766 2.88972C243.399 1.58469 241.628 0.93217 239.453 0.93217C237.278 0.93217 235.476 1.58469 234.046 2.88972C232.679 4.13262 231.996 5.74838 231.996 7.73701C231.996 9.72564 232.679 11.3725 234.046 12.6775C235.476 13.9826 237.278 14.6351 239.453 14.6351C241.628 14.6351 243.399 13.9826 244.766 12.6775ZM232.555 68.9806V20.8806H246.351V68.9806H232.555ZM233.487 68.0484H245.419V21.8128H233.487V68.0484Z" fill="url(#paint6_linear_808_3574)"/>
<path fill-rule="evenodd" clip-rule="evenodd" d="M145.582 68.0486H157.513V44.1851C157.513 39.9592 158.477 36.6656 160.403 34.3041C162.392 31.9426 164.971 30.7618 168.14 30.7618C171.372 30.7618 173.764 31.8183 175.318 33.9312C176.871 36.0441 177.648 39.0892 177.648 43.0665V68.0486H189.58V44.1851C189.58 39.9592 190.543 36.6656 192.47 34.3041C194.458 31.9426 197.068 30.7618 200.3 30.7618C203.469 30.7618 205.8 31.8183 207.291 33.9312C208.845 36.0441 209.622 39.0892 209.622 43.0665V68.0486H221.553V41.9479C221.553 34.9877 219.938 29.7054 216.706 26.101C213.475 22.4966 208.845 20.6944 202.817 20.6944C199.461 20.6944 196.354 21.4401 193.495 22.9316C191.017 24.2533 188.978 25.9898 187.378 28.1412C187.173 28.4175 186.974 28.7007 186.783 28.9907C186.617 28.6826 186.445 28.3832 186.266 28.0923C183.23 23.1603 178.338 20.6944 171.589 20.6944C168.358 20.6944 165.499 21.378 163.013 22.7452C160.986 23.8364 159.286 25.2537 157.911 26.9968C157.642 27.3382 157.385 27.6921 157.14 28.0585L156.115 21.813H145.582V68.0486ZM157.711 25.7782L156.907 20.8808H144.649V68.9808H158.446V44.1851C158.446 40.0955 159.377 37.0398 161.121 34.8991C162.926 32.7579 165.24 31.694 168.14 31.694C171.152 31.694 173.23 32.6653 174.567 34.4834C175.956 36.3727 176.716 39.191 176.716 43.0665V68.9808H190.512V44.1851C190.512 40.0955 191.444 37.0398 193.187 34.8991C194.989 32.7625 197.331 31.694 200.3 31.694C203.244 31.694 205.253 32.6602 206.53 34.4688L206.535 34.4761L206.54 34.4834C207.929 36.3727 208.689 39.191 208.689 43.0665V68.9808H222.486V41.9479C222.486 34.8574 220.84 29.3159 217.4 25.4787C213.95 21.6304 209.04 19.7622 202.817 19.7622C199.317 19.7622 196.061 20.5413 193.064 22.1051L193.056 22.1091C190.577 23.4316 188.507 25.1573 186.858 27.2843C183.616 22.2518 178.468 19.7622 171.589 19.7622C168.224 19.7622 165.208 20.4749 162.567 21.9266C160.685 22.9405 159.065 24.2251 157.711 25.7782Z" fill="url(#paint7_linear_808_3574)"/>
<path fill-rule="evenodd" clip-rule="evenodd" d="M98.9784 66.0911C102.583 68.1418 106.622 69.1672 111.097 69.1672C115.509 69.1672 119.517 68.1418 123.122 66.0911C126.726 64.0403 129.554 61.2127 131.604 57.6083C133.717 53.9418 134.774 49.7159 134.774 44.9308C134.774 40.1457 133.717 35.9509 131.604 32.3465C129.554 28.68 126.726 25.8213 123.122 23.7705C119.579 21.7198 115.602 20.6944 111.19 20.6944C106.715 20.6944 102.676 21.7198 99.0716 23.7705C95.5294 25.8213 92.7018 28.68 90.5889 32.3465C88.4759 35.9509 87.4195 40.1457 87.4195 44.9308C87.4195 49.7159 88.4449 53.9418 90.4956 57.6083C92.6086 61.2127 95.4361 64.0403 98.9784 66.0911ZM89.783 31.8779C91.9745 28.0762 94.9169 25.0988 98.6045 22.9638L98.6106 22.9603C102.367 20.8234 106.567 19.7622 111.19 19.7622C115.752 19.7622 119.891 20.8239 123.585 22.962C127.336 25.0963 130.282 28.0754 132.413 31.8833C134.618 35.6486 135.706 40.008 135.706 44.9308C135.706 49.8562 134.617 54.2456 132.414 58.0707C130.28 61.8201 127.332 64.7679 123.583 66.9013C119.829 69.0371 115.66 70.0994 111.097 70.0994C106.474 70.0994 102.273 69.0382 98.5174 66.9013L98.5113 66.8978C94.8266 64.7645 91.8841 61.8201 89.6915 58.0797L89.6867 58.0716L89.6821 58.0634C87.5433 54.2394 86.4873 49.8528 86.4873 44.9308C86.4873 40.0056 87.5758 35.6443 89.783 31.8779ZM119.206 55.3711C116.907 57.6705 114.204 58.8201 111.097 58.8201C107.989 58.8201 105.286 57.6705 102.987 55.3711C100.75 53.0096 99.6309 49.5295 99.6309 44.9308C99.6309 40.3321 100.75 36.8831 102.987 34.5837C105.286 32.2222 108.02 31.0415 111.19 31.0415C114.235 31.0415 116.907 32.2222 119.206 34.5837C121.506 36.8831 122.656 40.3321 122.656 44.9308C122.656 49.5295 121.506 53.0096 119.206 55.3711ZM103.655 35.234C101.648 37.2961 100.563 40.4696 100.563 44.9308C100.563 49.3836 101.645 52.5931 103.655 54.721C105.786 56.8485 108.253 57.888 111.097 57.888C113.942 57.888 116.41 56.847 118.543 54.7164C120.613 52.5879 121.723 49.3807 121.723 44.9308C121.723 40.4758 120.61 37.3057 118.547 35.2429L118.539 35.2341L118.539 35.234C116.399 33.0363 113.961 31.9736 111.19 31.9736C108.283 31.9736 105.786 33.0447 103.655 35.234Z" fill="url(#paint8_linear_808_3574)"/>
<path fill-rule="evenodd" clip-rule="evenodd" d="M32.4229 65.7696C27.5472 62.8185 23.7924 58.7404 21.1675 53.5545L21.1654 53.5504C18.5428 48.3052 17.2451 42.2856 17.2451 35.5155C17.2451 28.7455 18.5428 22.7259 21.1654 17.4807C23.7894 12.2326 27.5443 8.12113 32.4229 5.16829C37.3174 2.20582 43.1467 0.745605 49.8711 0.745605C57.857 0.745605 64.4742 2.74391 69.6454 6.81406C74.885 10.8266 78.1289 16.4821 79.4066 23.701L79.6003 24.7956H64.6016L64.4363 24.0707C63.6729 20.7237 62.046 18.1587 59.5684 16.3149L59.5586 16.3076L59.549 16.3001C57.148 14.4136 53.8911 13.4231 49.6846 13.4231C43.8931 13.4231 39.4484 15.38 36.2318 19.24C32.9945 23.1247 31.3209 28.5128 31.3209 35.5155C31.3209 42.5168 32.9938 47.9039 36.2296 51.7885C39.4444 55.5862 43.8895 57.5148 49.6846 57.5148C53.9077 57.5148 57.1775 56.6097 59.5818 54.8928C62.0629 53.1034 63.6806 50.6583 64.4388 47.5088L64.6107 46.7948H79.6093L79.4053 47.8967C78.1239 54.8161 74.8717 60.2805 69.6366 64.2238C64.4657 68.1656 57.8519 70.0991 49.8711 70.0991C43.1502 70.0991 37.3238 68.6715 32.4306 65.7742L32.4229 65.7696ZM69.0738 63.4807C73.8721 59.8671 76.9481 54.9266 78.3019 48.6591C78.3683 48.3516 78.4306 48.0409 78.4887 47.727H65.3451C64.5372 51.0828 62.7972 53.7239 60.1249 55.6504C57.5149 57.5148 54.0348 58.4469 49.6846 58.4469C43.6566 58.4469 38.9336 56.4272 35.5156 52.3878C32.0977 48.2863 30.3887 42.6622 30.3887 35.5155C30.3887 28.3689 32.0977 22.7448 35.5156 18.6433C38.9336 14.5417 43.6566 12.4909 49.6846 12.4909C54.0348 12.4909 57.5149 13.5163 60.1249 15.5671C62.7972 17.5557 64.5372 20.3212 65.3451 23.8634H78.4887C78.4331 23.5495 78.3738 23.2388 78.3107 22.9313C76.9615 16.3581 73.8825 11.2312 69.0738 7.55044C64.1022 3.63533 57.7013 1.67778 49.8711 1.67778C43.2837 1.67778 37.6286 3.1071 32.9056 5.96576C28.1826 8.82441 24.5471 12.8017 21.9992 17.8975C19.4513 22.9934 18.1773 28.8661 18.1773 35.5155C18.1773 42.165 19.4513 48.0377 21.9992 53.1336C24.5471 58.1673 28.1826 62.1135 32.9056 64.9721C37.6286 67.7686 43.2837 69.1669 49.8711 69.1669C57.7013 69.1669 64.1022 67.2715 69.0738 63.4807Z" fill="url(#paint9_linear_808_3574)"/>
<path d="M206.634 70.139L298.165 58.5153L320.537 110.251L304.69 203.468L216.6 209.993L179.265 146.026L206.634 70.139Z" fill="white"/>
<path d="M298.165 58.5153L206.634 70.139L179.265 146.026M298.165 58.5153L274.861 134.487M298.165 58.5153L320.537 110.251L304.69 203.468M274.861 134.487L179.265 146.026M274.861 134.487L304.69 203.468M179.265 146.026L216.6 209.993L304.69 203.468" stroke="#D6D6D6"/>
<path d="M84.2467 50.688L142.049 102.067L129.542 168.32L60.9229 204.002L5.14958 146.349L15.9663 87.1949L84.2467 50.688Z" fill="white"/>
<path d="M142.049 102.067L84.2467 50.688L15.9663 87.1949M142.049 102.067L72.078 138.574M142.049 102.067L129.542 168.32L60.9229 204.002M72.078 138.574L15.9663 87.1949M72.078 138.574L60.9229 204.002M15.9663 87.1949L5.14957 146.349L60.9229 204.002" stroke="#D6D6D6"/>
<path d="M208.413 96.1544L188.133 144.693L142.748 151.287L104.63 115.028L129.395 66.4082L169.84 60.2954L208.413 96.1544Z" fill="white"/>
<path d="M188.133 144.693L208.413 96.1544L169.84 60.2954M188.133 144.693L149.186 107.747M188.133 144.693L142.748 151.287L104.63 115.028M149.186 107.747L169.84 60.2954M149.186 107.747L104.63 115.028M169.84 60.2954L129.395 66.4082L104.63 115.028" stroke="#D6D6D6"/>
<path d="M375.332 180.817L355.052 229.355L309.667 235.95L271.549 199.691L296.314 151.071L336.759 144.958L375.332 180.817Z" fill="white"/>
<path d="M355.052 229.355L375.332 180.817L336.759 144.958M355.052 229.355L316.105 192.409M355.052 229.355L309.667 235.95L271.549 199.691M316.105 192.409L336.759 144.958M316.105 192.409L271.549 199.691M336.759 144.958L296.314 151.071L271.549 199.691" stroke="#D6D6D6"/>
<path d="M469.677 225.222L418.502 213.042L404.668 169.317L434.298 125.846L486.278 142.438L498.839 181.365L469.677 225.222Z" fill="white"/>
<path d="M418.502 213.042L469.677 225.222L498.839 181.365M418.502 213.042L448.676 168.642M418.502 213.042L404.668 169.317L434.298 125.846M448.676 168.642L498.839 181.365M448.676 168.642L434.298 125.846M498.839 181.365L486.278 142.438L434.298 125.846" stroke="#D6D6D6"/>
<path d="M308.906 106.752L377.826 64.5417L429.265 108.355L426.745 167.548L364.862 216.487L309.583 168.48L308.906 106.752Z" fill="white"/>
<path d="M308.906 106.752L364.862 154.605M308.906 106.752L377.826 64.5417L429.265 108.355M308.906 106.752L309.583 168.48L364.862 216.487M364.862 154.605L429.265 108.355M364.862 154.605L364.862 216.487M429.265 108.355L426.745 167.548L364.862 216.487" stroke="#D6D6D6"/>
<path d="M407.325 115.827L428.161 76.485L466.918 74.4287L496.245 107.927L471.624 146.992L437.067 149.023L407.325 115.827Z" fill="white"/>
<path d="M428.161 76.485L407.325 115.827L437.067 149.023M428.161 76.485L458.134 110.626M428.161 76.485L466.918 74.4287L496.245 107.927M458.134 110.626L437.067 149.023M458.134 110.626L496.245 107.927M437.067 149.023L471.624 146.992L496.245 107.927" stroke="#D6D6D6"/>
<path d="M485.87 190.781L472.089 103.975L530.818 54.7569L616.838 72.8384L624.316 163.696L572.187 207.893L485.87 190.781Z" fill="white"/>
<path d="M472.089 103.975L485.87 190.781L572.187 207.893M472.089 103.975L559.891 122.305M472.089 103.975L530.818 54.7569L616.838 72.8384M559.891 122.305L572.187 207.893M559.891 122.305L616.838 72.8384M572.187 207.893L624.316 163.696L616.838 72.8384" stroke="#D6D6D6"/>
<path d="M86.8737 242.605L76.493 177.221L120.729 140.149L185.521 153.768L191.154 222.204L151.889 255.494L86.8737 242.605Z" fill="white"/>
<path d="M76.493 177.221L86.8737 242.605L151.889 255.494M76.493 177.221L142.627 191.027M76.493 177.221L120.729 140.149L185.521 153.768M142.627 191.027L151.889 255.494M142.627 191.027L185.521 153.768M151.889 255.494L191.154 222.204L185.521 153.768" stroke="#D6D6D6"/>
<defs>
<linearGradient id="paint0_linear_808_3574" x1="13.9827" y1="-6.05907" x2="347.189" y2="66.6415" gradientUnits="userSpaceOnUse">
<stop stop-color="#F59C8A"/>
<stop offset="1" stop-color="#B3B5EB"/>
</linearGradient>
<linearGradient id="paint1_linear_808_3574" x1="13.983" y1="-6.05912" x2="347.19" y2="66.6415" gradientUnits="userSpaceOnUse">
<stop stop-color="#F59C8A"/>
<stop offset="1" stop-color="#B3B5EB"/>
</linearGradient>
<linearGradient id="paint2_linear_808_3574" x1="13.9823" y1="-6.05913" x2="347.189" y2="66.6415" gradientUnits="userSpaceOnUse">
<stop stop-color="#F59C8A"/>
<stop offset="1" stop-color="#B3B5EB"/>
</linearGradient>
<linearGradient id="paint3_linear_808_3574" x1="13.9824" y1="-6.05912" x2="347.189" y2="66.6414" gradientUnits="userSpaceOnUse">
<stop stop-color="#F59C8A"/>
<stop offset="1" stop-color="#B3B5EB"/>
</linearGradient>
<linearGradient id="paint4_linear_808_3574" x1="13.9828" y1="-6.05909" x2="347.189" y2="66.6415" gradientUnits="userSpaceOnUse">
<stop stop-color="#F59C8A"/>
<stop offset="1" stop-color="#B3B5EB"/>
</linearGradient>
<linearGradient id="paint5_linear_808_3574" x1="13.9822" y1="-6.0591" x2="347.189" y2="66.6415" gradientUnits="userSpaceOnUse">
<stop stop-color="#F59C8A"/>
<stop offset="1" stop-color="#B3B5EB"/>
</linearGradient>
<linearGradient id="paint6_linear_808_3574" x1="13.9825" y1="-6.05911" x2="347.189" y2="66.6415" gradientUnits="userSpaceOnUse">
<stop stop-color="#F59C8A"/>
<stop offset="1" stop-color="#B3B5EB"/>
</linearGradient>
<linearGradient id="paint7_linear_808_3574" x1="13.9827" y1="-6.05912" x2="347.189" y2="66.6414" gradientUnits="userSpaceOnUse">
<stop stop-color="#F59C8A"/>
<stop offset="1" stop-color="#B3B5EB"/>
</linearGradient>
<linearGradient id="paint8_linear_808_3574" x1="13.9829" y1="-6.05909" x2="347.189" y2="66.6415" gradientUnits="userSpaceOnUse">
<stop stop-color="#F59C8A"/>
<stop offset="1" stop-color="#B3B5EB"/>
</linearGradient>
<linearGradient id="paint9_linear_808_3574" x1="13.9825" y1="-6.05913" x2="347.189" y2="66.6414" gradientUnits="userSpaceOnUse">
<stop stop-color="#F59C8A"/>
<stop offset="1" stop-color="#B3B5EB"/>
</linearGradient>
</defs>
</svg>
