<svg width="21" height="22" viewBox="0 0 21 22" fill="none" xmlns="http://www.w3.org/2000/svg">
<g id="done-ring-round-svgrepo-com 2">
<path id="Vector" d="M7.875 9.25L10.7258 11.3881C11.092 11.6627 11.6079 11.6087 11.9094 11.2643L17.5 4.875" stroke="#29B067" stroke-width="2" stroke-linecap="round"/>
<path id="Vector_2" d="M18.375 11C18.375 12.6454 17.8596 14.2495 16.9011 15.587C15.9428 16.9245 14.5894 17.9282 13.0314 18.4571C11.4733 18.986 9.78863 19.0135 8.21401 18.5359C6.63943 18.0583 5.25402 17.0994 4.25234 15.794C3.25067 14.4886 2.68306 12.9023 2.62922 11.2577C2.57538 9.61313 3.03803 7.99301 3.95217 6.62489C4.86633 5.25676 6.18607 4.20935 7.72603 3.62975C9.26599 3.05014 10.9489 2.96747 12.5382 3.39334" stroke="#29B067" stroke-width="2" stroke-linecap="round"/>
</g>
</svg>
