<svg width="707" height="316" viewBox="0 0 707 316" fill="none" xmlns="http://www.w3.org/2000/svg">
<path d="M120.554 158.602H120V159.204H120.554V158.602ZM120.554 1.56905V0.967285H120V1.56905H120.554ZM215.01 1.56905H215.565V0.967285H215.01V1.56905ZM215.01 24.6754V25.2772H215.565V24.6754H215.01ZM147.01 24.6754V24.0735H146.456V24.6754H147.01ZM147.01 67.7472H146.456V68.3491H147.01V67.7472ZM208.809 67.7472H209.364V67.1454H208.809V67.7472ZM208.809 90.1805V90.7824H209.364V90.1805H208.809ZM147.01 90.1805V89.5785H146.456V90.1805H147.01ZM147.01 135.495H146.456V136.097H147.01V135.495ZM215.01 135.495H215.565V134.893H215.01V135.495ZM215.01 158.602V159.204H215.565V158.602H215.01ZM121.109 158.602V1.56905H120V158.602H121.109ZM120.554 2.17097H215.01V0.967285H120.554V2.17097ZM214.455 1.56905V24.6754H215.565V1.56905H214.455ZM215.01 24.0735H147.01V25.2772H215.01V24.0735ZM146.456 24.6754V67.7472H147.565V24.6754H146.456ZM147.01 68.3491H208.809V67.1454H147.01V68.3491ZM208.255 67.7472V90.1805H209.364V67.7472H208.255ZM208.809 89.5785H147.01V90.7824H208.809V89.5785ZM146.456 90.1805V135.495H147.565V90.1805H146.456ZM147.01 136.097H215.01V134.893H147.01V136.097ZM214.455 135.495V158.602H215.565V135.495H214.455ZM215.01 158H120.554V159.204H215.01V158ZM237.358 158.602H236.803V159.204H237.358V158.602ZM237.358 47.3329V46.731H236.803V47.3329H237.358ZM260.919 47.3329L261.47 47.2559L261.408 46.731H260.919V47.3329ZM263.401 68.1959L262.85 68.2728L263.064 70.072L263.883 68.491L263.401 68.1959ZM278.488 51.1466L278.776 51.6607L278.779 51.6588L278.488 51.1466ZM301.224 44.641H301.778V44.0391H301.224V44.641ZM301.224 74.9258V75.5277H301.778V74.9258H301.224ZM267.534 87.9371L267.057 87.6298L267.051 87.6421L267.534 87.9371ZM263.813 158.602V159.204H264.368V158.602H263.813ZM237.912 158.602V47.3329H236.803V158.602H237.912ZM237.358 47.9349H260.919V46.731H237.358V47.9349ZM260.371 47.41L262.85 68.2728L263.951 68.1189L261.47 47.2559L260.371 47.41ZM263.883 68.491C267.558 61.4002 272.521 55.7934 278.776 51.6607L278.2 50.6324C271.778 54.8749 266.684 60.6343 262.916 67.9008L263.883 68.491ZM278.779 51.6588C285.157 47.3883 292.631 45.2427 301.224 45.2427V44.0391C292.455 44.0391 284.773 46.2308 278.197 50.6343L278.779 51.6588ZM300.669 44.641V74.9258H301.778V44.641H300.669ZM301.224 74.324H293.783V75.5277H301.224V74.324ZM293.783 74.324C287.938 74.324 282.702 75.3057 278.078 77.2822L278.485 78.4021C282.956 76.4902 288.053 75.5277 293.783 75.5277V74.324ZM278.078 77.2822C273.41 79.2779 269.735 82.7352 267.057 87.6298L268.011 88.2445C270.57 83.5674 274.058 80.2949 278.485 78.4021L278.078 77.2822ZM267.051 87.6421C264.505 92.5542 263.26 99.3266 263.26 107.903H264.368C264.368 99.4295 265.603 92.891 268.017 88.2322L267.051 87.6421ZM263.26 107.903V158.602H264.368V107.903H263.26ZM263.813 158H237.358V159.204H263.813V158ZM317.239 158.602H316.684V159.204H317.239V158.602ZM317.239 47.3329V46.731H316.684V47.3329H317.239ZM340.801 47.3329L341.351 47.2559L341.288 46.731H340.801V47.3329ZM343.281 68.1959L342.73 68.2728L342.945 70.072L343.765 68.491L343.281 68.1959ZM358.369 51.1466L358.658 51.6607L358.661 51.6588L358.369 51.1466ZM381.105 44.641H381.66V44.0391H381.105V44.641ZM381.105 74.9258V75.5277H381.66V74.9258H381.105ZM347.414 87.9371L346.937 87.6298L346.931 87.6421L347.414 87.9371ZM343.695 158.602V159.204H344.249V158.602H343.695ZM317.793 158.602V47.3329H316.684V158.602H317.793ZM317.239 47.9349H340.801V46.731H317.239V47.9349ZM340.251 47.41L342.73 68.2728L343.831 68.1189L341.351 47.2559L340.251 47.41ZM343.765 68.491C347.439 61.4002 352.402 55.7934 358.658 51.6607L358.08 50.6324C351.66 54.8749 346.564 60.6343 342.798 67.9008L343.765 68.491ZM358.661 51.6588C365.037 47.3883 372.512 45.2427 381.105 45.2427V44.0391C372.335 44.0391 364.653 46.2308 358.077 50.6343L358.661 51.6588ZM380.551 44.641V74.9258H381.66V44.641H380.551ZM381.105 74.324H373.664V75.5277H381.105V74.324ZM373.664 74.324C367.82 74.324 362.582 75.3057 357.96 77.2822L358.366 78.4021C362.837 76.4902 367.933 75.5277 373.664 75.5277V74.324ZM357.96 77.2822C353.292 79.2779 349.614 82.7352 346.937 87.6298L347.891 88.2445C350.45 83.5674 353.94 80.2949 358.366 78.4021L357.96 77.2822ZM346.931 87.6421C344.386 92.5542 343.14 99.3266 343.14 107.903H344.249C344.249 99.4295 345.483 92.891 347.898 88.2322L346.931 87.6421ZM343.14 107.903V158.602H344.249V107.903H343.14ZM343.695 158H317.239V159.204H343.695V158ZM417.625 153.891L417.348 154.412L417.351 154.413L417.625 153.891ZM398.817 133.477L398.333 133.77L398.339 133.781L398.817 133.477ZM399.024 72.6825L399.502 72.9868L399.504 72.9831L399.024 72.6825ZM417.832 52.044L417.558 51.5208L417.553 51.523L417.832 52.044ZM471.157 52.044L470.879 52.5648L470.883 52.567L471.157 52.044ZM489.965 72.6825L489.481 72.9764L489.487 72.9868L489.965 72.6825ZM489.965 133.477L489.484 133.176L489.483 133.179L489.965 133.477ZM462.475 128.093L462.867 128.518L462.873 128.512L462.475 128.093ZM462.475 78.0665L462.079 78.4865L462.084 78.4921L462.475 78.0665ZM426.513 128.093L426.11 128.507L426.12 128.518L426.513 128.093ZM444.495 160.691C434.662 160.691 425.801 158.248 417.9 153.367L417.351 154.413C425.432 159.405 434.485 161.895 444.495 161.895V160.691ZM417.902 153.37C410.134 148.488 403.932 141.759 399.295 133.173L398.339 133.781C403.071 142.543 409.409 149.423 417.348 154.412L417.902 153.37ZM399.301 133.182C394.806 124.461 392.55 114.395 392.55 102.968H391.441C391.441 114.571 393.733 124.844 398.333 133.77L399.301 133.182ZM392.55 102.968C392.55 91.5429 394.875 81.556 399.502 72.9868L398.546 72.3782C393.803 81.1574 391.441 91.3605 391.441 102.968H392.55ZM399.504 72.9831C404.142 64.2476 410.342 57.4454 418.109 52.5648L417.553 51.523C409.613 56.513 403.275 63.4701 398.543 72.382L399.504 72.9831ZM418.106 52.567C426.007 47.6874 434.869 45.2427 444.702 45.2427V44.0391C434.692 44.0391 425.639 46.5299 417.558 51.5208L418.106 52.567ZM444.702 45.2427C454.394 45.2427 463.116 47.6866 470.879 52.5648L471.435 51.523C463.489 46.5306 454.573 44.0391 444.702 44.0391V45.2427ZM470.883 52.567C478.785 57.4474 484.983 64.247 489.481 72.9764L490.449 72.3887C485.853 63.4706 479.512 56.5112 471.43 51.5208L470.883 52.567ZM489.487 72.9868C494.115 81.556 496.438 91.5429 496.438 102.968H497.547C497.547 91.3605 495.185 81.1574 490.444 72.3782L489.487 72.9868ZM496.438 102.968C496.438 114.392 494.115 124.454 489.484 133.176L490.445 133.777C495.185 124.851 497.547 114.574 497.547 102.968H496.438ZM489.483 133.179C484.986 141.759 478.788 148.486 470.883 153.367L471.43 154.413C479.509 149.425 485.851 142.542 490.447 133.775L489.483 133.179ZM470.883 153.367C462.979 158.248 454.188 160.691 444.495 160.691V161.895C454.368 161.895 463.35 159.405 471.43 154.413L470.883 153.367ZM444.495 136.995C451.539 136.995 457.671 134.159 462.867 128.518L462.084 127.667C457.085 133.093 451.229 135.791 444.495 135.791V136.995ZM462.873 128.512C468.106 122.678 470.677 114.128 470.677 102.968H469.568C469.568 113.941 467.041 122.14 462.079 127.673L462.873 128.512ZM470.677 102.968C470.677 91.8072 468.107 83.3271 462.867 77.641L462.084 78.4921C467.041 83.8729 469.568 91.9928 469.568 102.968H470.677ZM462.873 77.6466C457.679 71.8578 451.615 68.9399 444.702 68.9399V70.1438C451.29 70.1438 457.075 72.9092 462.079 78.4865L462.873 77.6466ZM444.702 68.9399C437.518 68.9399 431.313 71.8524 426.115 77.6466L426.909 78.4863C431.909 72.9145 437.83 70.1438 444.702 70.1438V68.9399ZM426.115 77.6466C421.017 83.3334 418.517 91.8119 418.517 102.968H419.626C419.626 91.9897 422.086 83.8667 426.909 78.4863L426.115 77.6466ZM418.517 102.968C418.517 114.125 421.017 122.672 426.11 128.507L426.915 127.679C422.086 122.147 419.626 113.944 419.626 102.968H418.517ZM426.12 128.518C431.317 134.159 437.45 136.995 444.495 136.995V135.791C437.759 135.791 431.905 133.093 426.905 127.667L426.12 128.518ZM518.579 158.602H518.026V159.204H518.579V158.602ZM518.579 47.3329V46.731H518.026V47.3329H518.579ZM542.141 47.3329L542.691 47.2559L542.63 46.731H542.141V47.3329ZM544.622 68.1959L544.072 68.2728L544.286 70.072L545.105 68.491L544.622 68.1959ZM559.711 51.1466L559.998 51.6607L560.001 51.6588L559.711 51.1466ZM582.445 44.641H583V44.0391H582.445V44.641ZM582.445 74.9258V75.5277H583V74.9258H582.445ZM548.756 87.9371L548.279 87.6298L548.273 87.6421L548.756 87.9371ZM545.036 158.602V159.204H545.589V158.602H545.036ZM519.134 158.602V47.3329H518.026V158.602H519.134ZM518.579 47.9349H542.141V46.731H518.579V47.9349ZM541.592 47.41L544.072 68.2728L545.173 68.1189L542.691 47.2559L541.592 47.41ZM545.105 68.491C548.78 61.4002 553.743 55.7934 559.998 51.6607L559.422 50.6324C553 54.8749 547.905 60.6343 544.138 67.9008L545.105 68.491ZM560.001 51.6588C566.379 47.3883 573.852 45.2427 582.445 45.2427V44.0391C573.677 44.0391 565.995 46.2308 559.419 50.6343L560.001 51.6588ZM581.891 44.641V74.9258H583V44.641H581.891ZM582.445 74.324H575.005V75.5277H582.445V74.324ZM575.005 74.324C569.16 74.324 563.923 75.3057 559.3 77.2822L559.707 78.4021C564.179 76.4902 569.275 75.5277 575.005 75.5277V74.324ZM559.3 77.2822C554.633 79.2779 550.957 82.7352 548.279 87.6298L549.233 88.2445C551.792 83.5674 555.28 80.2949 559.707 78.4021L559.3 77.2822ZM548.273 87.6421C545.727 92.5542 544.482 99.3266 544.482 107.903H545.589C545.589 99.4295 546.825 92.891 549.239 88.2322L548.273 87.6421ZM544.482 107.903V158.602H545.589V107.903H544.482ZM545.036 158H518.579V159.204H545.036V158Z" fill="url(#paint0_linear_636_2)"/>
<path d="M234.309 113.469L332.5 101L356.5 156.5L339.5 256.5L245 263.5L204.948 194.878L234.309 113.469Z" fill="white"/>
<path d="M332.5 101L234.309 113.469L204.948 194.878M332.5 101L307.5 182.5M332.5 101L356.5 156.5L339.5 256.5M307.5 182.5L204.948 194.878M307.5 182.5L339.5 256.5M204.948 194.878L245 263.5L339.5 256.5" stroke="#D6D6D6"/>
<path d="M90.3768 66.1498L152.385 121.268L138.968 192.341L65.3558 230.619L5.52415 168.771L17.128 105.313L90.3768 66.1498Z" fill="white"/>
<path d="M152.385 121.268L90.3768 66.1498L17.128 105.313M152.385 121.268L77.3227 160.431M152.385 121.268L138.968 192.341L65.3558 230.619M77.3227 160.431L17.128 105.313M77.3227 160.431L65.3558 230.619M17.128 105.313L5.52415 168.771L65.3558 230.619" stroke="#D6D6D6"/>
<path d="M228.314 176.158L206.558 228.228L157.871 235.302L116.979 196.405L143.546 144.247L186.934 137.689L228.314 176.158Z" fill="white"/>
<path d="M206.558 228.228L228.314 176.158L186.934 137.689M206.558 228.228L164.777 188.593M206.558 228.228L157.871 235.302L116.979 196.405M164.777 188.593L186.934 137.689M164.777 188.593L116.979 196.405M186.934 137.689L143.546 144.247L116.979 196.405" stroke="#D6D6D6"/>
<path d="M341.383 170.519L415.318 125.238L470.5 172.239L467.796 235.739L401.411 288.239L342.109 236.739L341.383 170.519Z" fill="white"/>
<path d="M341.383 170.519L401.411 221.855M341.383 170.519L415.318 125.238L470.5 172.239M341.383 170.519L342.109 236.739L401.411 288.239M401.411 221.855L470.5 172.239M401.411 221.855L401.411 288.239M470.5 172.239L467.796 235.739L401.411 288.239" stroke="#D6D6D6"/>
<path d="M452.768 261.812L445.28 214.644L477.191 187.901L523.932 197.726L527.995 247.095L499.67 271.11L452.768 261.812Z" fill="white"/>
<path d="M445.28 214.644L452.768 261.812L499.67 271.11M445.28 214.644L492.988 224.604M445.28 214.644L477.191 187.901L523.932 197.726M492.988 224.604L499.67 271.11M492.988 224.604L523.932 197.726M499.67 271.11L527.995 247.095L523.932 197.726" stroke="#D6D6D6"/>
<path d="M513.226 255.436L498.441 162.314L561.444 109.515L653.723 128.912L661.745 226.381L605.823 273.794L513.226 255.436Z" fill="white"/>
<path d="M498.441 162.314L513.226 255.436L605.823 273.794M498.441 162.314L592.632 181.978M498.441 162.314L561.444 109.515L653.723 128.912M592.632 181.978L605.823 273.794M592.632 181.978L653.723 128.912M605.823 273.794L661.745 226.381L653.723 128.912" stroke="#D6D6D6"/>
<defs>
<linearGradient id="paint0_linear_636_2" x1="119.904" y1="53.964" x2="597.535" y2="112.147" gradientUnits="userSpaceOnUse">
<stop stop-color="#F59C8A"/>
<stop offset="1" stop-color="#B3B5EB"/>
</linearGradient>
</defs>
</svg>
