<svg width="109" height="32" viewBox="0 0 109 32" fill="none" xmlns="http://www.w3.org/2000/svg">
<g clip-path="url(#clip0_321_4118)">
<path d="M15.3924 0H4.86076C2.17624 0 0 2.17624 0 4.86076V10.3291C0 13.0136 2.17624 15.1899 4.86076 15.1899H15.3924C18.0769 15.1899 20.2532 13.0136 20.2532 10.3291V4.86076C20.2532 2.17624 18.0769 0 15.3924 0Z" fill="black"/>
<path d="M15.3924 16.8101H4.86076C2.17624 16.8101 0 18.9864 0 21.6709V27.1392C0 29.8238 2.17624 32 4.86076 32H15.3924C18.0769 32 20.2532 29.8238 20.2532 27.1392V21.6709C20.2532 18.9864 18.0769 16.8101 15.3924 16.8101Z" fill="black"/>
<path d="M37.2658 0H26.7342C24.0496 0 21.8734 2.17624 21.8734 4.86076V10.3291C21.8734 13.0136 24.0496 15.1899 26.7342 15.1899H37.2658C39.9503 15.1899 42.1266 13.0136 42.1266 10.3291V4.86076C42.1266 2.17624 39.9503 0 37.2658 0Z" fill="black"/>
<path d="M37.2658 16.8101H26.7342C24.0496 16.8101 21.8734 18.9864 21.8734 21.6709V27.1392C21.8734 29.8238 24.0496 32 26.7342 32H37.2658C39.9503 32 42.1266 29.8238 42.1266 27.1392V21.6709C42.1266 18.9864 39.9503 16.8101 37.2658 16.8101Z" fill="black"/>
<path d="M60.9418 25.3165L60.1195 22.5661H53.2861L52.4638 25.3165H46.0557L53.1727 5.80864H60.4597L67.5767 25.3165H60.9418ZM54.5904 18.1995H58.8152L56.7737 11.2527H56.6603L54.5904 18.1995ZM81.3659 5.80864C82.349 5.80864 83.247 6.01656 84.0595 6.43243C84.8915 6.8294 85.5437 7.39649 86.016 8.1337C86.5077 8.87092 86.7532 9.69319 86.7532 10.6005C86.7532 13.0012 85.6664 14.5134 83.4925 15.1372V15.2507C85.969 15.8178 87.2069 17.4434 87.2069 20.1276C87.2069 21.1484 86.9517 22.0557 86.4413 22.8496C85.95 23.6247 85.2695 24.2296 84.3998 24.6643C83.5305 25.0991 82.5758 25.3165 81.536 25.3165H68.3795V5.80864H81.3659ZM74.6459 13.4076H78.9557C79.3717 13.4076 79.712 13.2659 79.9765 12.9823C80.2601 12.6798 80.4018 12.3112 80.4018 11.8765V11.5929C80.4018 11.1771 80.2601 10.8274 79.9765 10.5438C79.693 10.2414 79.3527 10.0902 78.9557 10.0902H74.6459V13.4076ZM74.6459 20.7798H79.4094C79.8254 20.7798 80.1657 20.638 80.4302 20.3545C80.7137 20.052 80.8555 19.6834 80.8555 19.2486V18.9651C80.8555 18.5303 80.7137 18.1712 80.4302 17.8876C80.1657 17.5852 79.8254 17.434 79.4094 17.434H74.6459V20.7798ZM98.1894 5.46838C101.082 5.46838 103.369 6.19616 105.051 7.65167C106.733 9.08831 107.575 11.1487 107.575 13.8329H101.592C101.592 12.6988 101.289 11.8009 100.685 11.1393C100.098 10.4777 99.2575 10.1469 98.161 10.1469C96.8944 10.1469 95.9587 10.5438 95.3539 11.3378C94.7678 12.1317 94.4749 13.2375 94.4749 14.6552V16.4699C94.4749 17.8687 94.7678 18.9745 95.3539 19.7874C95.9587 20.5813 96.8758 20.9783 98.1043 20.9783C99.3142 20.9783 100.231 20.6664 100.855 20.0426C101.478 19.4188 101.79 18.5398 101.79 17.4056H107.575C107.575 20.0709 106.752 22.1124 105.108 23.5302C103.482 24.9479 101.176 25.6567 98.1894 25.6567C94.8626 25.6567 92.339 24.8061 90.6187 23.1048C88.9175 21.4036 88.0668 18.8895 88.0668 15.5626C88.0668 12.2357 88.9175 9.72155 90.6187 8.02028C92.339 6.31902 94.8626 5.46838 98.1894 5.46838Z" fill="black"/>
</g>
<defs>
<clipPath id="clip0_321_4118">
<rect width="108.962" height="32" fill="white"/>
</clipPath>
</defs>
</svg>
