<svg width="82" height="32" viewBox="0 0 82 32" fill="none" xmlns="http://www.w3.org/2000/svg">
<rect y="0.5" width="16" height="16" rx="4" fill="black"/>
<rect x="16" y="0.5" width="15" height="16" rx="4" fill="black"/>
<rect y="16.5" width="16" height="15" rx="4" fill="black"/>
<rect x="16" y="16.5" width="15" height="15" rx="4" fill="black"/>
<path d="M40.44 23L45.56 9H48.62L53.72 23H50.86L47.06 12.08L43.26 23H40.44ZM42.7 19.82L43.42 17.72H50.54L51.24 19.82H42.7ZM55.6702 23V9H61.4102C62.3835 9 63.1968 9.15333 63.8502 9.46C64.5168 9.76667 65.0235 10.1933 65.3702 10.74C65.7168 11.2733 65.8902 11.8933 65.8902 12.6C65.8902 13.3067 65.7368 13.9 65.4302 14.38C65.1235 14.86 64.7168 15.2333 64.2102 15.5C63.7168 15.7533 63.1702 15.9 62.5702 15.94L62.8902 15.72C63.5302 15.7467 64.0968 15.92 64.5902 16.24C65.0968 16.5467 65.4902 16.96 65.7702 17.48C66.0635 18 66.2102 18.5667 66.2102 19.18C66.2102 19.9267 66.0302 20.5867 65.6702 21.16C65.3102 21.7333 64.7835 22.1867 64.0902 22.52C63.4102 22.84 62.5768 23 61.5902 23H55.6702ZM58.3702 20.8H61.1702C61.9035 20.8 62.4702 20.6333 62.8702 20.3C63.2702 19.9667 63.4702 19.4867 63.4702 18.86C63.4702 18.2333 63.2635 17.7467 62.8502 17.4C62.4368 17.04 61.8635 16.86 61.1302 16.86H58.3702V20.8ZM58.3702 14.84H60.9702C61.6768 14.84 62.2102 14.68 62.5702 14.36C62.9435 14.04 63.1302 13.5867 63.1302 13C63.1302 12.4267 62.9435 11.98 62.5702 11.66C62.2102 11.3267 61.6702 11.16 60.9502 11.16H58.3702V14.84ZM74.855 23.24C73.455 23.24 72.2483 22.94 71.235 22.34C70.2217 21.7267 69.4417 20.88 68.895 19.8C68.3483 18.7067 68.075 17.4467 68.075 16.02C68.075 14.5933 68.3483 13.3333 68.895 12.24C69.4417 11.1467 70.2217 10.2933 71.235 9.68C72.2483 9.06667 73.455 8.76 74.855 8.76C76.5617 8.76 77.955 9.18 79.035 10.02C80.115 10.86 80.7883 12.0467 81.055 13.58H78.095C77.9217 12.8333 77.5617 12.2533 77.015 11.84C76.4683 11.4133 75.7417 11.2 74.835 11.2C73.995 11.2 73.275 11.4 72.675 11.8C72.075 12.1867 71.615 12.74 71.295 13.46C70.9883 14.1667 70.835 15.02 70.835 16.02C70.835 17.0067 70.9883 17.86 71.295 18.58C71.615 19.3 72.075 19.8533 72.675 20.24C73.275 20.6267 73.995 20.82 74.835 20.82C75.7417 20.82 76.4683 20.6267 77.015 20.24C77.5617 19.84 77.9217 19.2867 78.095 18.58H81.055C80.7883 20.0333 80.115 21.1733 79.035 22C77.955 22.8267 76.5617 23.24 74.855 23.24Z" fill="#110000"/>
</svg>
