<svg width="36" height="36" viewBox="0 0 36 36" fill="none" xmlns="http://www.w3.org/2000/svg">
<path d="M17.9999 33.2694C15.9947 33.2694 14.0091 32.8744 12.1566 32.107C10.304 31.3397 8.6207 30.215 7.20279 28.7971C5.78489 27.3791 4.66016 25.6959 3.89278 23.8434C3.12542 21.9907 2.73047 20.0051 2.73047 17.9999C2.73047 15.9947 3.12542 14.0091 3.89278 12.1566C4.66016 10.304 5.78489 8.6207 7.20279 7.20279C8.6207 5.78489 10.304 4.66016 12.1566 3.89278C14.0091 3.12542 15.9947 2.73047 17.9999 2.73047C20.0051 2.73047 21.9907 3.12542 23.8434 3.89278C25.6959 4.66016 27.3791 5.78489 28.7971 7.20279C30.215 8.6207 31.3397 10.304 32.107 12.1566C32.8744 14.0091 33.2694 15.9947 33.2694 17.9999C33.2694 20.0051 32.8744 21.9907 32.107 23.8434C31.3397 25.6959 30.215 27.3791 28.7971 28.7971C27.3791 30.215 25.6959 31.3397 23.8432 32.107C21.9907 32.8744 20.0051 33.2694 17.9999 33.2694Z" stroke="#D80027" stroke-width="4" stroke-linecap="round"/>
<path d="M12.9102 12.9102L23.0898 23.0898" stroke="#D80027" stroke-width="4" stroke-linecap="round"/>
<path d="M23.0898 12.9102L12.9102 23.0898" stroke="#D80027" stroke-width="4" stroke-linecap="round"/>
</svg>
